<svg width="23" height="11" viewBox="0 0 23 11" fill="none" xmlns="http://www.w3.org/2000/svg">
<path d="M3.84375 0.976562C3.86719 1.00781 3.89453 1.16797 3.92578 1.45703C3.96484 1.73828 4.00391 2.08984 4.04297 2.51172C4.08984 2.93359 4.13672 3.39453 4.18359 3.89453C4.23047 4.38672 4.27344 4.86328 4.3125 5.32422C4.35156 5.77734 4.38672 6.18359 4.41797 6.54297C4.44922 6.89453 4.47266 7.14062 4.48828 7.28125C4.51172 7.49219 4.54688 7.75 4.59375 8.05469C4.64844 8.35938 4.69922 8.66016 4.74609 8.95703C4.80078 9.24609 4.84375 9.5 4.875 9.71875C4.90625 9.9375 4.91016 10.0664 4.88672 10.1055C4.86328 10.1445 4.78516 10.1406 4.65234 10.0938C4.51953 10.0469 4.375 9.98047 4.21875 9.89453C4.0625 9.80859 3.91406 9.71484 3.77344 9.61328C3.64062 9.51172 3.55469 9.42578 3.51562 9.35547C3.47656 9.27734 3.43359 9.14844 3.38672 8.96875C3.33984 8.78125 3.28906 8.53516 3.23438 8.23047C3.13281 8.41797 3.01953 8.60938 2.89453 8.80469C2.76953 9 2.64844 9.17969 2.53125 9.34375C2.41406 9.50781 2.30469 9.64453 2.20312 9.75391C2.10938 9.85547 2.03906 9.90234 1.99219 9.89453C1.91406 9.88672 1.79297 9.78516 1.62891 9.58984C1.47266 9.38672 1.3125 9.16016 1.14844 8.91016C0.984375 8.65234 0.835938 8.41016 0.703125 8.18359C0.578125 7.94922 0.507812 7.79297 0.492188 7.71484C0.484375 7.66797 0.480469 7.5625 0.480469 7.39844C0.480469 7.22656 0.480469 7.02344 0.480469 6.78906C0.488281 6.55469 0.496094 6.30078 0.503906 6.02734C0.519531 5.74609 0.53125 5.47266 0.539062 5.20703C0.554688 4.93359 0.566406 4.67578 0.574219 4.43359C0.589844 4.19141 0.605469 3.99219 0.621094 3.83594C0.636719 3.59375 0.65625 3.34375 0.679688 3.08594C0.710938 2.82031 0.738281 2.57422 0.761719 2.34766C0.792969 2.12109 0.820312 1.92969 0.84375 1.77344C0.875 1.60938 0.902344 1.50781 0.925781 1.46875C0.941406 1.4375 0.988281 1.41797 1.06641 1.41016C1.15234 1.40234 1.24609 1.41016 1.34766 1.43359C1.44922 1.44922 1.54297 1.48047 1.62891 1.52734C1.71484 1.56641 1.77344 1.61719 1.80469 1.67969C1.82031 1.71875 1.82812 1.875 1.82812 2.14844C1.83594 2.41406 1.83984 2.73438 1.83984 3.10938C1.83984 3.48438 1.83594 3.89062 1.82812 4.32812C1.82812 4.75781 1.82422 5.16406 1.81641 5.54688C1.80859 5.92969 1.80078 6.25781 1.79297 6.53125C1.79297 6.79688 1.79297 6.95312 1.79297 7C1.79297 7.08594 1.85156 7.22266 1.96875 7.41016C2.09375 7.58984 2.20703 7.80859 2.30859 8.06641L3.04688 7.23438C3.03906 7.01562 3.03125 6.73438 3.02344 6.39062C3.02344 6.04688 3.01953 5.68359 3.01172 5.30078C3.00391 4.91016 2.99609 4.51953 2.98828 4.12891C2.98828 3.73047 2.98828 3.36719 2.98828 3.03906C2.98828 2.71094 2.98828 2.44141 2.98828 2.23047C2.99609 2.01172 3.00391 1.88672 3.01172 1.85547C3.03516 1.79297 3.08203 1.70312 3.15234 1.58594C3.23047 1.46094 3.3125 1.34766 3.39844 1.24609C3.48438 1.13672 3.57031 1.05078 3.65625 0.988281C3.74219 0.925781 3.80469 0.921875 3.84375 0.976562ZM6.84375 1.29297C7 1.32422 7.21484 1.41797 7.48828 1.57422C7.76172 1.72266 8.03516 1.89453 8.30859 2.08984C8.58984 2.27734 8.83594 2.46484 9.04688 2.65234C9.25781 2.83203 9.38281 2.96094 9.42188 3.03906C9.45312 3.11719 9.46484 3.26172 9.45703 3.47266C9.44922 3.68359 9.42578 3.94141 9.38672 4.24609C9.34766 4.54297 9.29688 4.87109 9.23438 5.23047C9.17188 5.58984 9.10156 5.95312 9.02344 6.32031C8.94531 6.67969 8.85938 7.03125 8.76562 7.375C8.67969 7.71094 8.58984 8.00781 8.49609 8.26562C8.45703 8.39062 8.37109 8.52734 8.23828 8.67578C8.10547 8.82422 7.94922 8.97266 7.76953 9.12109C7.58984 9.26172 7.39844 9.39453 7.19531 9.51953C7 9.64453 6.8125 9.75 6.63281 9.83594C6.46094 9.92188 6.30469 9.98047 6.16406 10.0117C6.03125 10.043 5.94141 10.0352 5.89453 9.98828C5.84766 9.94141 5.79688 9.79297 5.74219 9.54297C5.69531 9.28516 5.64844 8.96484 5.60156 8.58203C5.55469 8.19141 5.51172 7.75781 5.47266 7.28125C5.43359 6.79688 5.39844 6.30469 5.36719 5.80469C5.33594 5.30469 5.30859 4.81641 5.28516 4.33984C5.26953 3.85547 5.25781 3.42188 5.25 3.03906C5.25 2.64844 5.25781 2.32422 5.27344 2.06641C5.28906 1.80078 5.31641 1.64062 5.35547 1.58594C5.38672 1.54687 5.46484 1.50781 5.58984 1.46875C5.72266 1.42969 5.86719 1.39453 6.02344 1.36328C6.1875 1.33203 6.34766 1.30859 6.50391 1.29297C6.66016 1.27734 6.77344 1.27734 6.84375 1.29297ZM6.77344 2.78125C6.71875 2.82031 6.67969 2.94141 6.65625 3.14453C6.63281 3.33984 6.61328 3.57812 6.59766 3.85938C6.58984 4.13281 6.58594 4.42578 6.58594 4.73828C6.58594 5.05078 6.58203 5.33594 6.57422 5.59375C6.55859 6.26562 6.55078 6.79688 6.55078 7.1875C6.55859 7.57031 6.56641 7.85938 6.57422 8.05469C6.58984 8.24219 6.60938 8.36328 6.63281 8.41797C6.65625 8.46484 6.6875 8.48828 6.72656 8.48828C6.75781 8.48828 6.80859 8.46484 6.87891 8.41797C6.95703 8.37109 7.03906 8.3125 7.125 8.24219C7.21094 8.17188 7.29297 8.09766 7.37109 8.01953C7.44922 7.93359 7.50391 7.85938 7.53516 7.79688C7.56641 7.73438 7.60547 7.61328 7.65234 7.43359C7.69922 7.24609 7.74609 7.03125 7.79297 6.78906C7.83984 6.53906 7.88672 6.27734 7.93359 6.00391C7.98047 5.72266 8.01953 5.45703 8.05078 5.20703C8.08984 4.94922 8.11719 4.72266 8.13281 4.52734C8.15625 4.32422 8.16797 4.17969 8.16797 4.09375C8.16016 3.92969 8.09375 3.76172 7.96875 3.58984C7.84375 3.41797 7.69922 3.26562 7.53516 3.13281C7.37891 3 7.22266 2.89844 7.06641 2.82812C6.91797 2.75781 6.82031 2.74219 6.77344 2.78125ZM13.0312 3.83594C13.0781 3.89062 13.1211 3.94922 13.1602 4.01172C13.1992 4.06641 13.2344 4.14453 13.2656 4.24609C13.2969 4.33984 13.3203 4.46484 13.3359 4.62109C13.3594 4.77734 13.3711 4.98047 13.3711 5.23047C13.3711 5.62891 13.3594 6.03125 13.3359 6.4375C13.3203 6.83594 13.3047 7.1875 13.2891 7.49219C13.2812 7.76562 13.2734 8.01953 13.2656 8.25391C13.2578 8.48828 13.25 8.69531 13.2422 8.875C13.2344 9.04688 13.2227 9.18359 13.207 9.28516C13.1992 9.38672 13.1914 9.44141 13.1836 9.44922C13.1523 9.47266 13.1016 9.46484 13.0312 9.42578C12.9688 9.37891 12.8984 9.32031 12.8203 9.25C12.75 9.17969 12.6836 9.10547 12.6211 9.02734C12.5586 8.94922 12.5195 8.88672 12.5039 8.83984C12.5039 8.80078 12.4922 8.6875 12.4688 8.5C12.2812 8.60938 12.0742 8.6875 11.8477 8.73438C11.6211 8.77344 11.3945 8.78906 11.168 8.78125C10.9492 8.76562 10.7461 8.72266 10.5586 8.65234C10.3711 8.58203 10.2305 8.48828 10.1367 8.37109C10.0977 8.32422 10.0625 8.25391 10.0312 8.16016C10.0078 8.06641 9.98438 7.96094 9.96094 7.84375C9.94531 7.71875 9.92969 7.58984 9.91406 7.45703C9.89844 7.31641 9.88672 7.1875 9.87891 7.07031C9.86328 6.76562 9.90234 6.50391 9.99609 6.28516C10.0898 6.05859 10.2617 5.89062 10.5117 5.78125C10.6211 5.73438 10.7656 5.71094 10.9453 5.71094C11.1328 5.70312 11.3164 5.71094 11.4961 5.73438C11.6836 5.75 11.8516 5.77344 12 5.80469C12.1484 5.82812 12.2422 5.84766 12.2812 5.86328C12.25 5.46484 12.2266 5.12109 12.2109 4.83203C12.1953 4.53516 12.1641 4.34375 12.1172 4.25781C12.0781 4.20312 12.0312 4.14844 11.9766 4.09375C11.9297 4.05469 11.8672 4.01172 11.7891 3.96484C11.7109 3.91797 11.6172 3.88281 11.5078 3.85938C11.4219 3.84375 11.3438 3.87891 11.2734 3.96484C11.2109 4.04297 11.1523 4.18359 11.0977 4.38672C11.0508 4.58203 11.0234 4.88281 11.0156 5.28906C10.7422 5.29688 10.5312 5.29688 10.3828 5.28906C10.2422 5.27344 10.1367 5.25781 10.0664 5.24219C9.98047 5.22656 9.92969 5.20703 9.91406 5.18359C9.89844 5.15234 9.90625 5.03906 9.9375 4.84375C9.96875 4.64062 10.0117 4.42188 10.0664 4.1875C10.1289 3.95312 10.1992 3.73047 10.2773 3.51953C10.3633 3.30859 10.4531 3.17578 10.5469 3.12109C10.7344 3.01172 10.957 2.97266 11.2148 3.00391C11.4805 3.03516 11.7383 3.10156 11.9883 3.20312C12.2383 3.30469 12.4609 3.41797 12.6562 3.54297C12.8516 3.66797 12.9766 3.76562 13.0312 3.83594ZM12.3047 7.25781C12.3047 7.21875 12.3086 7.16797 12.3164 7.10547C12.3242 7.03516 12.3281 6.96484 12.3281 6.89453C12.3281 6.82422 12.3242 6.75781 12.3164 6.69531C12.3164 6.63281 12.3086 6.58594 12.293 6.55469C12.2695 6.50781 12.1992 6.46875 12.082 6.4375C11.9727 6.40625 11.8477 6.38672 11.707 6.37891C11.5664 6.36328 11.4336 6.35938 11.3086 6.36719C11.1836 6.36719 11.0977 6.38281 11.0508 6.41406C10.9883 6.45312 10.9414 6.50781 10.9102 6.57812C10.8867 6.64844 10.8711 6.75781 10.8633 6.90625C10.8633 6.97656 10.8672 7.05078 10.875 7.12891C10.8828 7.20703 10.8906 7.28516 10.8984 7.36328C10.9141 7.43359 10.9297 7.49609 10.9453 7.55078C10.9688 7.60547 10.9922 7.64062 11.0156 7.65625C11.0703 7.69531 11.1641 7.73047 11.2969 7.76172C11.4375 7.78516 11.5781 7.79297 11.7188 7.78516C11.8594 7.76953 11.9883 7.72266 12.1055 7.64453C12.2227 7.56641 12.2891 7.4375 12.3047 7.25781ZM17.4492 5.08984C17.4492 5.21484 17.4336 5.39453 17.4023 5.62891C17.3789 5.86328 17.3438 6.12109 17.2969 6.40234C17.25 6.67578 17.1992 6.96094 17.1445 7.25781C17.0977 7.54688 17.0469 7.8125 16.9922 8.05469C16.9453 8.29688 16.9023 8.5 16.8633 8.66406C16.832 8.82812 16.8125 8.91797 16.8047 8.93359C16.7891 8.95703 16.7461 8.97266 16.6758 8.98047C16.6133 8.98047 16.5391 8.97266 16.4531 8.95703C16.375 8.94141 16.3008 8.91797 16.2305 8.88672C16.168 8.85547 16.1289 8.81641 16.1133 8.76953C16.1055 8.73828 16.1016 8.62891 16.1016 8.44141C16.1094 8.25391 16.1172 8.03125 16.125 7.77344C16.1406 7.50781 16.1562 7.22656 16.1719 6.92969C16.1875 6.625 16.2031 6.34375 16.2188 6.08594C16.2422 5.82031 16.2578 5.59375 16.2656 5.40625C16.2812 5.21875 16.2891 5.10547 16.2891 5.06641C16.2891 4.92578 16.2734 4.79297 16.2422 4.66797C16.2188 4.53516 16.1875 4.42188 16.1484 4.32812C16.1094 4.23438 16.0625 4.16406 16.0078 4.11719C15.9609 4.0625 15.918 4.04297 15.8789 4.05859C15.7773 4.07422 15.6914 4.10156 15.6211 4.14062C15.5508 4.17188 15.4922 4.20703 15.4453 4.24609C15.3906 4.29297 15.3477 4.34766 15.3164 4.41016C15.3086 4.42578 15.293 4.47266 15.2695 4.55078C15.2539 4.62891 15.2461 4.71875 15.2461 4.82031C15.2461 4.85156 15.2461 4.96484 15.2461 5.16016C15.2461 5.34766 15.2422 5.57422 15.2344 5.83984C15.2344 6.10547 15.2305 6.39453 15.2227 6.70703C15.2227 7.01172 15.2188 7.29688 15.2109 7.5625C15.2109 7.82031 15.207 8.04297 15.1992 8.23047C15.1914 8.41797 15.1836 8.52344 15.1758 8.54688C15.1602 8.59375 15.1211 8.66016 15.0586 8.74609C14.9961 8.82422 14.9258 8.89844 14.8477 8.96875C14.7695 9.03906 14.6953 9.09375 14.625 9.13281C14.5547 9.16406 14.5078 9.15625 14.4844 9.10938C14.4609 9.08594 14.4375 8.97266 14.4141 8.76953C14.3906 8.55859 14.3633 8.30469 14.332 8.00781C14.3086 7.70312 14.2812 7.375 14.25 7.02344C14.2188 6.66406 14.1914 6.32031 14.168 5.99219C14.1445 5.66406 14.125 5.36719 14.1094 5.10156C14.0938 4.83594 14.082 4.64453 14.0742 4.52734C14.0664 4.36328 14.0586 4.17969 14.0508 3.97656C14.043 3.76562 14.0352 3.57031 14.0273 3.39062C14.0273 3.20312 14.0273 3.04297 14.0273 2.91016C14.0352 2.76953 14.0508 2.68359 14.0742 2.65234C14.0898 2.62109 14.1406 2.61328 14.2266 2.62891C14.3203 2.64453 14.418 2.67578 14.5195 2.72266C14.6289 2.76172 14.7305 2.8125 14.8242 2.875C14.918 2.92969 14.9805 2.98438 15.0117 3.03906C15.0273 3.08594 15.0469 3.14062 15.0703 3.20312C15.0938 3.25781 15.1133 3.35156 15.1289 3.48438C15.2617 3.40625 15.4062 3.33594 15.5625 3.27344C15.7188 3.20312 15.8711 3.15234 16.0195 3.12109C16.1758 3.08203 16.3242 3.07031 16.4648 3.08594C16.6055 3.09375 16.7305 3.13281 16.8398 3.20312C16.9102 3.25781 16.9805 3.35156 17.0508 3.48438C17.1289 3.61719 17.1953 3.77344 17.25 3.95312C17.3125 4.13281 17.3594 4.32422 17.3906 4.52734C17.4297 4.72266 17.4492 4.91016 17.4492 5.08984ZM19.3125 8.875C19.1641 8.36719 19.0039 7.76953 18.832 7.08203C18.6836 6.49609 18.5117 5.78125 18.3164 4.9375C18.1211 4.09375 17.9141 3.125 17.6953 2.03125C17.6953 1.95313 17.7383 1.86328 17.8242 1.76172C17.9102 1.65234 18.0117 1.55078 18.1289 1.45703C18.2539 1.36328 18.3828 1.28125 18.5156 1.21094C18.6484 1.14062 18.7617 1.10547 18.8555 1.10547C18.9102 1.16797 18.9844 1.43359 19.0781 1.90234C19.1172 2.10547 19.1641 2.35938 19.2188 2.66406C19.2812 2.96875 19.3477 3.34766 19.418 3.80078C19.4883 4.24609 19.5664 4.76953 19.6523 5.37109C19.7383 5.97266 19.8359 6.67188 19.9453 7.46875C20.0234 6.92969 20.1016 6.42188 20.1797 5.94531C20.2578 5.46094 20.3281 5.03125 20.3906 4.65625C20.4688 4.22656 20.5391 3.82812 20.6016 3.46094C20.6328 3.23438 20.668 2.99609 20.707 2.74609C20.7539 2.48828 20.8008 2.25391 20.8477 2.04297C20.8945 1.83203 20.9414 1.65625 20.9883 1.51562C21.043 1.375 21.1016 1.30469 21.1641 1.30469C21.2188 1.29688 21.3086 1.30469 21.4336 1.32812C21.5664 1.35156 21.6953 1.38672 21.8203 1.43359C21.9453 1.47266 22.0547 1.51953 22.1484 1.57422C22.25 1.62891 22.3008 1.68359 22.3008 1.73828C22.3008 1.76953 22.2695 1.91797 22.207 2.18359C22.1523 2.44922 22.0703 2.78906 21.9609 3.20312C21.8594 3.60938 21.7422 4.07031 21.6094 4.58594C21.4844 5.10156 21.3477 5.62891 21.1992 6.16797C21.0586 6.69922 20.918 7.21875 20.7773 7.72656C20.6367 8.23438 20.5078 8.6875 20.3906 9.08594C20.2734 9.47656 20.1719 9.79297 20.0859 10.0352C20.0078 10.2773 19.9531 10.3984 19.9219 10.3984C19.8906 10.3984 19.8086 10.2617 19.6758 9.98828C19.543 9.70703 19.4219 9.33594 19.3125 8.875Z" fill="#ffffff"/>
</svg>
